<svg width="9" height="10" viewBox="0 0 9 10" fill="none" xmlns="http://www.w3.org/2000/svg">
<path d="M2.064 9.516C2.064 9.432 2.028 9.384 1.968 9.384C1.908 9.384 1.848 9.408 1.752 9.468L1.704 9.372C1.332 8.772 0.996 7.74 0.852 7.344C0.78 7.14 0.708 6.72 0.612 6.084C0.72 6.144 0.792 6.168 0.828 6.168C0.972 6.168 1.272 5.88 1.476 5.88C1.608 5.988 1.716 6.06 1.752 6.348C1.872 7.284 2.112 7.848 2.268 7.848C2.4 7.848 2.568 7.692 3 6.912C3.192 6.252 3.396 6.204 3.612 5.712C3.612 5.808 3.636 5.856 3.66 5.856C3.696 5.856 3.744 5.808 3.792 5.688C3.828 5.58 4.092 5.148 4.392 4.596C4.968 3.54 6.348 1.872 6.636 1.536C6.972 1.152 7.536 0.696 7.764 0.564C7.716 0.767999 7.74 0.827999 7.812 0.827999C8.004 0.744 8.244 0.456 8.4 0.372L8.304 0.588C8.424 0.504 8.508 0.456 8.58 0.456C8.64 0.456 8.676 0.551999 8.676 0.611999C8.676 0.707999 8.616 0.84 8.472 1.008C8.328 1.176 8.052 1.56 7.548 2.088L6.84 2.832C6.384 3.408 4.476 6.132 4.116 6.744L3.372 8.004C3.048 8.544 2.856 8.892 2.736 9.024C2.616 9.156 2.496 9.288 2.34 9.408L2.304 9.384L2.232 9.348L2.196 9.36L2.064 9.516Z" fill="#F7D482"/>
</svg>
