<svg width="2180" height="1254" viewBox="0 0 2180 1254" fill="none" xmlns="http://www.w3.org/2000/svg">
<g clip-path="url(#clip0_50_185)">
<path d="M400.51 1.53013L375.064 8.09222L61.5595 88.9387L36.1132 95.5008C23.7618 98.7008 13.1842 106.67 6.70082 117.659C0.21748 128.648 -1.64206 141.76 1.53016 154.119L111.871 581.996C115.071 594.347 123.04 604.925 134.029 611.409C145.018 617.892 158.13 619.751 170.489 616.579L170.555 616.562L534.82 522.626L534.886 522.609C547.237 519.409 557.815 511.44 564.298 500.451C570.781 489.461 572.641 476.349 569.469 463.991L459.128 36.1134C455.928 23.762 447.959 13.1843 436.97 6.7009C425.981 0.217516 412.869 -1.64206 400.51 1.53013Z" fill="#B9B9BA"/>
<path d="M1837.49 3.53013L1812.05 10.0922L1498.54 90.9387L1473.1 97.5008C1460.74 100.701 1450.17 108.67 1443.68 119.659C1437.2 130.648 1435.34 143.76 1438.51 156.119L1548.85 583.996C1552.05 596.347 1560.02 606.925 1571.01 613.409C1582 619.892 1595.11 621.751 1607.47 618.579L1607.54 618.562L1971.8 524.626L1971.87 524.609C1984.22 521.409 1994.8 513.44 2001.28 502.451C2007.76 491.461 2009.62 478.349 2006.45 465.991L1896.11 38.1134C1892.91 25.762 1884.94 15.1843 1873.95 8.7009C1862.96 2.21752 1849.85 0.357937 1837.49 3.53013Z" fill="#B9B9BA"/>
<path d="M403.97 14.9453L373.831 22.7177L69.7117 101.144L39.5727 108.916C30.777 111.195 23.2444 116.87 18.6274 124.695C14.0104 132.521 12.6862 141.858 14.9452 150.659L125.286 578.537C127.565 587.332 133.24 594.865 141.065 599.482C148.891 604.099 158.229 605.423 167.029 603.164L167.095 603.147L531.36 509.21L531.427 509.193C540.222 506.914 547.755 501.24 552.372 493.414C556.988 485.588 558.313 476.251 556.054 467.45L445.713 39.5729C443.434 30.7773 437.759 23.2447 429.934 18.6277C422.108 14.0108 412.771 12.6865 403.97 14.9453Z" fill="#D5D5CD"/>
<path d="M1840.95 16.9453L1810.81 24.7177L1506.69 103.144L1476.56 110.916C1467.76 113.195 1460.23 118.87 1455.61 126.695C1450.99 134.521 1449.67 143.858 1451.93 152.659L1562.27 580.537C1564.55 589.332 1570.22 596.865 1578.05 601.482C1585.87 606.099 1595.21 607.423 1604.01 605.164L1604.08 605.147L1968.34 511.21L1968.41 511.193C1977.2 508.914 1984.74 503.24 1989.35 495.414C1993.97 487.588 1995.3 478.251 1993.04 469.45L1882.7 41.5729C1880.42 32.7773 1874.74 25.2447 1866.92 20.6277C1859.09 16.0108 1849.75 14.6865 1840.95 16.9453Z" fill="#D5D5CD"/>
<path d="M381.212 153.503L196.939 201.024C194.881 201.554 192.696 201.246 190.866 200.166C189.035 199.086 187.708 197.323 187.178 195.265C186.647 193.206 186.956 191.022 188.036 189.191C189.116 187.361 190.879 186.034 192.937 185.503L377.21 137.983C379.267 137.454 381.45 137.764 383.279 138.844C385.108 139.924 386.434 141.687 386.964 143.744C387.495 145.801 387.187 147.984 386.108 149.814C385.03 151.644 383.269 152.971 381.212 153.503Z" fill="#F2F2F2"/>
<path d="M1818.2 155.503L1633.92 203.024C1631.86 203.554 1629.68 203.246 1627.85 202.166C1626.02 201.086 1624.69 199.323 1624.16 197.265C1623.63 195.206 1623.94 193.022 1625.02 191.191C1626.1 189.361 1627.86 188.034 1629.92 187.503L1814.19 139.983C1816.25 139.454 1818.43 139.764 1820.26 140.844C1822.09 141.924 1823.42 143.687 1823.95 145.744C1824.48 147.801 1824.17 149.984 1823.09 151.814C1822.01 153.644 1820.25 154.971 1818.2 155.503Z" fill="#F2F2F2"/>
<path d="M419.977 171.439L203.693 227.214C201.635 227.745 199.45 227.437 197.62 226.356C195.789 225.276 194.463 223.513 193.932 221.455C193.401 219.397 193.71 217.212 194.79 215.382C195.87 213.551 197.633 212.225 199.691 211.694L415.975 155.919C418.033 155.388 420.218 155.696 422.048 156.776C423.879 157.856 425.206 159.619 425.736 161.678C426.267 163.736 425.959 165.92 424.879 167.751C423.798 169.582 422.035 170.908 419.977 171.439Z" fill="#F2F2F2"/>
<path d="M1856.96 173.439L1640.68 229.214C1638.62 229.745 1636.43 229.437 1634.6 228.356C1632.77 227.276 1631.45 225.513 1630.91 223.455C1630.38 221.397 1630.69 219.212 1631.77 217.382C1632.85 215.551 1634.62 214.225 1636.67 213.694L1852.96 157.919C1855.02 157.388 1857.2 157.696 1859.03 158.776C1860.86 159.856 1862.19 161.619 1862.72 163.678C1863.25 165.736 1862.94 167.92 1861.86 169.751C1860.78 171.582 1859.02 172.908 1856.96 173.439Z" fill="#F2F2F2"/>
<path d="M411.48 270.877L227.207 318.397C226.188 318.66 225.128 318.719 224.085 318.572C223.043 318.425 222.04 318.074 221.134 317.539C220.228 317.004 219.435 316.296 218.803 315.455C218.17 314.615 217.709 313.657 217.446 312.638C217.183 311.619 217.124 310.558 217.271 309.516C217.418 308.474 217.769 307.471 218.304 306.565C218.839 305.658 219.547 304.866 220.388 304.233C221.229 303.6 222.186 303.139 223.205 302.877L407.478 255.356C408.497 255.093 409.558 255.034 410.6 255.181C411.642 255.328 412.645 255.679 413.552 256.214C414.458 256.749 415.25 257.457 415.883 258.298C416.516 259.139 416.977 260.096 417.24 261.115C417.502 262.134 417.562 263.195 417.415 264.237C417.267 265.279 416.916 266.282 416.382 267.189C415.847 268.095 415.139 268.887 414.298 269.52C413.457 270.153 412.5 270.614 411.48 270.877Z" fill="#F2F2F2"/>
<path d="M1848.46 272.877L1664.19 320.397C1663.17 320.66 1662.11 320.719 1661.07 320.572C1660.03 320.425 1659.02 320.074 1658.12 319.539C1657.21 319.004 1656.42 318.296 1655.79 317.455C1655.15 316.615 1654.69 315.657 1654.43 314.638C1654.17 313.619 1654.11 312.558 1654.25 311.516C1654.4 310.474 1654.75 309.471 1655.29 308.565C1655.82 307.658 1656.53 306.866 1657.37 306.233C1658.21 305.6 1659.17 305.139 1660.19 304.877L1844.46 257.356C1845.48 257.093 1846.54 257.034 1847.58 257.181C1848.62 257.328 1849.63 257.679 1850.53 258.214C1851.44 258.749 1852.23 259.457 1852.87 260.298C1853.5 261.139 1853.96 262.096 1854.22 263.115C1854.48 264.134 1854.54 265.195 1854.4 266.237C1854.25 267.279 1853.9 268.282 1853.36 269.189C1852.83 270.095 1852.12 270.887 1851.28 271.52C1850.44 272.153 1849.48 272.614 1848.46 272.877Z" fill="#F2F2F2"/>
<path d="M450.246 288.813L233.962 344.588C232.943 344.851 231.882 344.91 230.84 344.763C229.797 344.616 228.795 344.265 227.888 343.73C226.982 343.195 226.189 342.487 225.557 341.646C224.924 340.805 224.463 339.848 224.2 338.829C223.937 337.81 223.878 336.749 224.025 335.707C224.172 334.665 224.523 333.662 225.058 332.755C225.593 331.849 226.301 331.057 227.142 330.424C227.983 329.791 228.94 329.33 229.959 329.067L446.243 273.292C448.301 272.761 450.486 273.07 452.317 274.15C454.147 275.23 455.474 276.993 456.005 279.051C456.535 281.109 456.227 283.294 455.147 285.125C454.067 286.955 452.304 288.282 450.246 288.813Z" fill="#F2F2F2"/>
<path d="M1887.23 290.813L1670.94 346.588C1669.93 346.851 1668.86 346.91 1667.82 346.763C1666.78 346.616 1665.78 346.265 1664.87 345.73C1663.96 345.195 1663.17 344.487 1662.54 343.646C1661.91 342.805 1661.45 341.848 1661.18 340.829C1660.92 339.81 1660.86 338.749 1661.01 337.707C1661.16 336.665 1661.51 335.662 1662.04 334.755C1662.58 333.849 1663.28 333.057 1664.12 332.424C1664.97 331.791 1665.92 331.33 1666.94 331.067L1883.23 275.292C1885.28 274.761 1887.47 275.07 1889.3 276.15C1891.13 277.23 1892.46 278.993 1892.99 281.051C1893.52 283.109 1893.21 285.294 1892.13 287.125C1891.05 288.955 1889.29 290.282 1887.23 290.813Z" fill="#F2F2F2"/>
<path d="M441.749 388.25L257.476 435.771C255.418 436.3 253.235 435.99 251.405 434.91C249.576 433.83 248.25 432.067 247.72 430.01C247.189 427.953 247.497 425.769 248.576 423.939C249.655 422.109 251.417 420.782 253.473 420.25L437.746 372.73C439.805 372.199 441.989 372.508 443.82 373.588C445.65 374.668 446.977 376.431 447.508 378.489C448.039 380.547 447.73 382.732 446.65 384.562C445.57 386.393 443.807 387.719 441.749 388.25Z" fill="#F2F2F2"/>
<path d="M1878.73 390.25L1694.46 437.771C1692.4 438.3 1690.22 437.99 1688.39 436.91C1686.56 435.83 1685.23 434.067 1684.7 432.01C1684.17 429.953 1684.48 427.769 1685.56 425.939C1686.64 424.109 1688.4 422.782 1690.46 422.25L1874.73 374.73C1876.79 374.199 1878.97 374.508 1880.8 375.588C1882.63 376.668 1883.96 378.431 1884.49 380.489C1885.02 382.547 1884.71 384.732 1883.63 386.562C1882.55 388.393 1880.79 389.719 1878.73 390.25Z" fill="#F2F2F2"/>
<path d="M480.514 406.186L264.23 461.961C263.21 462.225 262.149 462.286 261.106 462.139C260.063 461.992 259.06 461.642 258.152 461.107C257.245 460.572 256.452 459.864 255.819 459.023C255.186 458.182 254.724 457.224 254.461 456.204C254.198 455.184 254.139 454.123 254.287 453.08C254.434 452.038 254.786 451.034 255.321 450.128C255.857 449.221 256.565 448.429 257.407 447.796C258.249 447.163 259.207 446.703 260.227 446.441L476.511 390.666C478.569 390.135 480.754 390.443 482.585 391.523C484.415 392.603 485.742 394.366 486.273 396.425C486.804 398.483 486.495 400.667 485.415 402.498C484.335 404.329 482.572 405.655 480.514 406.186Z" fill="#F2F2F2"/>
<path d="M1917.5 408.186L1701.21 463.961C1700.19 464.225 1699.13 464.286 1698.09 464.139C1697.05 463.992 1696.04 463.642 1695.14 463.107C1694.23 462.572 1693.44 461.864 1692.8 461.023C1692.17 460.182 1691.71 459.224 1691.44 458.204C1691.18 457.184 1691.12 456.123 1691.27 455.08C1691.42 454.038 1691.77 453.034 1692.3 452.128C1692.84 451.221 1693.55 450.429 1694.39 449.796C1695.23 449.163 1696.19 448.703 1697.21 448.441L1913.49 392.666C1915.55 392.135 1917.74 392.443 1919.57 393.523C1921.4 394.603 1922.72 396.366 1923.26 398.425C1923.79 400.483 1923.48 402.667 1922.4 404.498C1921.32 406.329 1919.55 407.655 1917.5 408.186Z" fill="#F2F2F2"/>
<path d="M165.481 249.749L100.269 266.566C99.2817 266.819 98.2347 266.671 97.3572 266.153C96.4798 265.635 95.8435 264.791 95.588 263.804L80.6185 205.756C80.3652 204.769 80.5137 203.722 81.0314 202.845C81.549 201.967 82.3937 201.331 83.38 201.076L148.592 184.259C149.579 184.005 150.626 184.154 151.504 184.671C152.381 185.189 153.018 186.034 153.273 187.02L168.243 245.068C168.496 246.055 168.347 247.102 167.83 247.98C167.312 248.857 166.467 249.493 165.481 249.749Z" fill="#B7B9BF"/>
<path d="M1602.46 251.749L1537.25 268.566C1536.26 268.819 1535.22 268.671 1534.34 268.153C1533.46 267.635 1532.83 266.791 1532.57 265.804L1517.6 207.756C1517.35 206.769 1517.5 205.722 1518.01 204.845C1518.53 203.967 1519.38 203.331 1520.36 203.076L1585.58 186.259C1586.56 186.005 1587.61 186.154 1588.49 186.671C1589.36 187.189 1590 188.034 1590.26 189.02L1605.23 247.068C1605.48 248.055 1605.33 249.102 1604.81 249.98C1604.29 250.857 1603.45 251.493 1602.46 251.749Z" fill="#B7B9BF"/>
<path d="M195.749 367.122L130.537 383.939C129.55 384.193 128.503 384.044 127.626 383.526C126.748 383.009 126.112 382.164 125.856 381.178L110.887 323.13C110.633 322.143 110.782 321.096 111.3 320.218C111.817 319.341 112.662 318.705 113.648 318.449L178.861 301.632C179.848 301.379 180.895 301.527 181.772 302.045C182.65 302.563 183.286 303.407 183.541 304.394L198.511 362.442C198.764 363.429 198.616 364.476 198.098 365.353C197.58 366.23 196.736 366.867 195.749 367.122Z" fill="#B7B9BF"/>
<path d="M1632.73 369.122L1567.52 385.939C1566.53 386.193 1565.49 386.044 1564.61 385.526C1563.73 385.009 1563.09 384.164 1562.84 383.178L1547.87 325.13C1547.62 324.143 1547.76 323.096 1548.28 322.218C1548.8 321.341 1549.64 320.705 1550.63 320.449L1615.84 303.632C1616.83 303.379 1617.88 303.527 1618.75 304.045C1619.63 304.563 1620.27 305.407 1620.52 306.394L1635.49 364.442C1635.75 365.429 1635.6 366.476 1635.08 367.353C1634.56 368.23 1633.72 368.867 1632.73 369.122Z" fill="#B7B9BF"/>
<path d="M226.018 484.496L160.805 501.313C159.818 501.566 158.771 501.417 157.894 500.9C157.016 500.382 156.38 499.537 156.124 498.551L141.155 440.503C140.902 439.516 141.05 438.469 141.568 437.592C142.086 436.714 142.93 436.078 143.916 435.822L209.129 419.005C210.116 418.752 211.163 418.9 212.04 419.418C212.918 419.936 213.554 420.781 213.81 421.767L228.779 479.815C229.032 480.802 228.884 481.849 228.366 482.726C227.848 483.604 227.004 484.24 226.018 484.496Z" fill="#B7B9BF"/>
<path d="M1663 486.496L1597.79 503.313C1596.8 503.566 1595.75 503.417 1594.88 502.9C1594 502.382 1593.36 501.537 1593.11 500.551L1578.14 442.503C1577.88 441.516 1578.03 440.469 1578.55 439.592C1579.07 438.714 1579.91 438.078 1580.9 437.822L1646.11 421.005C1647.1 420.752 1648.15 420.9 1649.02 421.418C1649.9 421.936 1650.54 422.781 1650.79 423.767L1665.76 481.815C1666.02 482.802 1665.87 483.849 1665.35 484.726C1664.83 485.604 1663.99 486.24 1663 486.496Z" fill="#B7B9BF"/>
<path d="M544.604 48.0425L518.446 50.5555L196.169 81.5163L170.011 84.0293C157.311 85.2637 145.62 91.4852 137.502 101.329C129.384 111.172 125.502 123.834 126.708 136.536L168.964 576.387C170.199 589.086 176.42 600.777 186.264 608.895C196.107 617.013 208.769 620.895 221.471 619.689L221.538 619.683L595.997 583.709L596.065 583.702C608.764 582.468 620.455 576.246 628.573 566.403C636.691 556.559 640.573 543.898 639.367 531.196L597.111 91.3449C595.877 78.6456 589.655 66.9545 579.812 58.8365C569.968 50.7185 557.306 46.8366 544.604 48.0425Z" fill="#B9B9BA"/>
<path d="M545.93 61.8332L514.947 64.8097L202.318 94.8436L171.336 97.82C162.292 98.6991 153.967 103.129 148.185 110.139C142.404 117.149 139.64 126.166 140.499 135.211L182.755 575.062C183.634 584.105 188.064 592.431 195.074 598.212C202.084 603.993 211.101 606.757 220.146 605.898L220.214 605.892L594.672 569.918L594.74 569.912C603.784 569.032 612.109 564.602 617.89 557.592C623.671 550.583 626.435 541.566 625.576 532.521L583.32 92.6698C582.441 83.6264 578.011 75.301 571.001 69.52C563.992 63.739 554.975 60.9746 545.93 61.8332Z" fill="#D5D5CD"/>
<path d="M501.84 195.146L312.41 213.344C310.295 213.548 308.185 212.902 306.545 211.55C304.905 210.197 303.87 208.249 303.667 206.133C303.463 204.018 304.109 201.908 305.461 200.268C306.814 198.628 308.762 197.593 310.878 197.39L500.307 179.191C502.422 178.99 504.53 179.637 506.168 180.989C507.806 182.341 508.841 184.288 509.044 186.403C509.247 188.517 508.602 190.626 507.251 192.266C505.901 193.905 503.954 194.941 501.84 195.146Z" fill="#F2F2F2"/>
<path d="M537.333 218.908L314.997 240.268C312.881 240.471 310.771 239.826 309.131 238.473C307.491 237.121 306.456 235.173 306.253 233.057C306.05 230.941 306.695 228.831 308.047 227.192C309.4 225.552 311.348 224.516 313.464 224.313L535.8 202.954C537.916 202.75 540.026 203.396 541.665 204.748C543.305 206.1 544.341 208.049 544.544 210.165C544.747 212.28 544.102 214.39 542.749 216.03C541.397 217.67 539.449 218.705 537.333 218.908Z" fill="#F2F2F2"/>
<path d="M513.431 315.804L324.002 334.002C322.954 334.103 321.897 333.996 320.891 333.688C319.884 333.38 318.948 332.877 318.136 332.208C317.325 331.538 316.652 330.715 316.159 329.786C315.665 328.856 315.359 327.839 315.258 326.791C315.157 325.744 315.264 324.687 315.572 323.68C315.88 322.674 316.383 321.738 317.053 320.926C317.722 320.114 318.545 319.442 319.475 318.948C320.404 318.454 321.421 318.148 322.469 318.048L511.899 299.849C512.946 299.749 514.003 299.855 515.01 300.163C516.016 300.471 516.952 300.974 517.764 301.644C518.576 302.313 519.248 303.136 519.742 304.066C520.236 304.995 520.542 306.013 520.642 307.06C520.743 308.108 520.636 309.165 520.328 310.171C520.02 311.178 519.517 312.114 518.848 312.926C518.178 313.738 517.355 314.41 516.426 314.904C515.496 315.397 514.479 315.703 513.431 315.804Z" fill="#F2F2F2"/>
<path d="M548.925 339.567L326.589 360.926C325.541 361.027 324.484 360.92 323.478 360.612C322.471 360.304 321.535 359.801 320.724 359.131C319.912 358.462 319.239 357.639 318.746 356.71C318.252 355.78 317.946 354.763 317.845 353.715C317.744 352.667 317.851 351.61 318.159 350.604C318.467 349.598 318.97 348.662 319.64 347.85C320.309 347.038 321.132 346.366 322.062 345.872C322.991 345.378 324.008 345.072 325.056 344.971L547.392 323.612C549.508 323.408 551.618 324.054 553.258 325.406C554.897 326.759 555.933 328.707 556.136 330.823C556.339 332.938 555.694 335.048 554.341 336.688C552.989 338.328 551.041 339.363 548.925 339.567Z" fill="#F2F2F2"/>
<path d="M273.738 256.567L206.7 263.007C205.686 263.103 204.675 262.793 203.889 262.145C203.103 261.497 202.606 260.563 202.508 259.549L196.775 199.877C196.679 198.863 196.989 197.851 197.637 197.065C198.285 196.279 199.219 195.783 200.233 195.684L267.27 189.244C268.284 189.148 269.295 189.458 270.081 190.106C270.867 190.754 271.364 191.688 271.463 192.702L277.195 252.374C277.292 253.388 276.982 254.399 276.334 255.185C275.685 255.971 274.752 256.468 273.738 256.567Z" fill="#B7B9BF"/>
<path d="M285.329 377.225L218.292 383.665C217.278 383.761 216.267 383.451 215.481 382.803C214.695 382.155 214.198 381.221 214.099 380.207L208.367 320.535C208.27 319.521 208.58 318.51 209.229 317.724C209.877 316.938 210.81 316.441 211.824 316.342L278.862 309.902C279.876 309.806 280.887 310.116 281.673 310.764C282.459 311.412 282.956 312.346 283.054 313.36L288.787 373.032C288.883 374.046 288.573 375.058 287.925 375.844C287.277 376.63 286.343 377.126 285.329 377.225Z" fill="#B7B9BF"/>
<path d="M296.921 497.882L229.884 504.323C228.869 504.419 227.858 504.109 227.072 503.461C226.286 502.813 225.789 501.879 225.691 500.865L219.958 441.192C219.862 440.178 220.172 439.167 220.82 438.381C221.468 437.595 222.402 437.098 223.416 437L290.453 430.56C291.468 430.463 292.479 430.773 293.265 431.421C294.051 432.07 294.547 433.003 294.646 434.017L300.379 493.69C300.475 494.704 300.165 495.715 299.517 496.501C298.868 497.287 297.935 497.784 296.921 497.882Z" fill="#B7B9BF"/>
<path d="M1981.59 50.0425L1955.43 52.5555L1633.15 83.5163L1606.99 86.0293C1594.29 87.2637 1582.6 93.4852 1574.49 103.329C1566.37 113.172 1562.49 125.834 1563.69 138.536L1605.95 578.387C1607.18 591.086 1613.4 602.777 1623.25 610.895C1633.09 619.013 1645.75 622.895 1658.45 621.689L1658.52 621.683L2032.98 585.709L2033.05 585.702C2045.75 584.468 2057.44 578.246 2065.56 568.403C2073.67 558.559 2077.56 545.898 2076.35 533.196L2034.09 93.3449C2032.86 80.6456 2026.64 68.9545 2016.79 60.8365C2006.95 52.7185 1994.29 48.8366 1981.59 50.0425Z" fill="#B9B9BA"/>
<path d="M1982.91 63.8332L1951.93 66.8097L1639.3 96.8436L1608.32 99.82C1599.27 100.699 1590.95 105.129 1585.17 112.139C1579.39 119.149 1576.62 128.166 1577.48 137.211L1619.74 577.062C1620.62 586.105 1625.05 594.431 1632.06 600.212C1639.07 605.993 1648.08 608.757 1657.13 607.898L1657.2 607.892L2031.65 571.918L2031.72 571.912C2040.77 571.032 2049.09 566.602 2054.87 559.592C2060.65 552.583 2063.42 543.566 2062.56 534.521L2020.3 94.6698C2019.42 85.6264 2014.99 77.301 2007.98 71.52C2000.97 65.739 1991.96 62.9746 1982.91 63.8332Z" fill="#D5D5CD"/>
<path d="M1938.82 197.146L1749.39 215.344C1747.28 215.548 1745.17 214.902 1743.53 213.55C1741.89 212.197 1740.85 210.249 1740.65 208.133C1740.45 206.018 1741.09 203.908 1742.44 202.268C1743.8 200.628 1745.74 199.593 1747.86 199.39L1937.29 181.191C1939.4 180.99 1941.51 181.637 1943.15 182.989C1944.79 184.341 1945.82 186.288 1946.03 188.403C1946.23 190.517 1945.59 192.626 1944.23 194.266C1942.88 195.905 1940.94 196.941 1938.82 197.146Z" fill="#F2F2F2"/>
<path d="M1974.32 220.908L1751.98 242.268C1749.86 242.471 1747.75 241.826 1746.11 240.473C1744.47 239.121 1743.44 237.173 1743.24 235.057C1743.03 232.941 1743.68 230.831 1745.03 229.192C1746.38 227.552 1748.33 226.516 1750.45 226.313L1972.78 204.954C1974.9 204.75 1977.01 205.396 1978.65 206.748C1980.29 208.1 1981.32 210.049 1981.53 212.165C1981.73 214.28 1981.08 216.39 1979.73 218.03C1978.38 219.67 1976.43 220.705 1974.32 220.908Z" fill="#F2F2F2"/>
<path d="M1950.41 317.804L1760.98 336.002C1759.94 336.103 1758.88 335.996 1757.87 335.688C1756.87 335.38 1755.93 334.877 1755.12 334.208C1754.31 333.538 1753.64 332.715 1753.14 331.786C1752.65 330.856 1752.34 329.839 1752.24 328.791C1752.14 327.744 1752.25 326.687 1752.55 325.68C1752.86 324.674 1753.37 323.738 1754.04 322.926C1754.7 322.114 1755.53 321.442 1756.46 320.948C1757.39 320.454 1758.4 320.148 1759.45 320.048L1948.88 301.849C1949.93 301.749 1950.99 301.855 1951.99 302.163C1953 302.471 1953.93 302.974 1954.75 303.644C1955.56 304.313 1956.23 305.136 1956.72 306.066C1957.22 306.995 1957.52 308.013 1957.63 309.06C1957.73 310.108 1957.62 311.165 1957.31 312.171C1957 313.178 1956.5 314.114 1955.83 314.926C1955.16 315.738 1954.34 316.41 1953.41 316.904C1952.48 317.397 1951.46 317.703 1950.41 317.804Z" fill="#F2F2F2"/>
<path d="M1985.91 341.567L1763.57 362.926C1762.52 363.027 1761.47 362.92 1760.46 362.612C1759.45 362.304 1758.52 361.801 1757.71 361.131C1756.89 360.462 1756.22 359.639 1755.73 358.71C1755.23 357.78 1754.93 356.763 1754.83 355.715C1754.73 354.667 1754.83 353.61 1755.14 352.604C1755.45 351.598 1755.95 350.662 1756.62 349.85C1757.29 349.038 1758.11 348.366 1759.04 347.872C1759.97 347.378 1760.99 347.072 1762.04 346.971L1984.38 325.612C1986.49 325.408 1988.6 326.054 1990.24 327.406C1991.88 328.759 1992.92 330.707 1993.12 332.823C1993.32 334.938 1992.68 337.048 1991.32 338.688C1989.97 340.328 1988.02 341.363 1985.91 341.567Z" fill="#F2F2F2"/>
<path d="M1710.72 258.567L1643.68 265.007C1642.67 265.103 1641.66 264.793 1640.87 264.145C1640.09 263.497 1639.59 262.563 1639.49 261.549L1633.76 201.877C1633.66 200.863 1633.97 199.851 1634.62 199.065C1635.27 198.279 1636.2 197.783 1637.22 197.684L1704.25 191.244C1705.27 191.148 1706.28 191.458 1707.06 192.106C1707.85 192.754 1708.35 193.688 1708.45 194.702L1714.18 254.374C1714.27 255.388 1713.96 256.399 1713.32 257.185C1712.67 257.971 1711.73 258.468 1710.72 258.567Z" fill="#B7B9BF"/>
<path d="M1722.31 379.225L1655.27 385.665C1654.26 385.761 1653.25 385.451 1652.46 384.803C1651.68 384.155 1651.18 383.221 1651.08 382.207L1645.35 322.535C1645.25 321.521 1645.56 320.51 1646.21 319.724C1646.86 318.938 1647.79 318.441 1648.81 318.342L1715.84 311.902C1716.86 311.806 1717.87 312.116 1718.66 312.764C1719.44 313.412 1719.94 314.346 1720.04 315.36L1725.77 375.032C1725.87 376.046 1725.56 377.058 1724.91 377.844C1724.26 378.63 1723.33 379.126 1722.31 379.225Z" fill="#B7B9BF"/>
<path d="M1733.9 499.882L1666.87 506.323C1665.85 506.419 1664.84 506.109 1664.05 505.461C1663.27 504.813 1662.77 503.879 1662.67 502.865L1656.94 443.192C1656.84 442.178 1657.15 441.167 1657.8 440.381C1658.45 439.595 1659.38 439.098 1660.4 439L1727.44 432.56C1728.45 432.463 1729.46 432.773 1730.25 433.421C1731.03 434.07 1731.53 435.003 1731.63 436.017L1737.36 495.69C1737.46 496.704 1737.15 497.715 1736.5 498.501C1735.85 499.287 1734.92 499.784 1733.9 499.882Z" fill="#B7B9BF"/>
<path d="M654.659 109.992H278.34C265.581 110.006 253.349 115.081 244.327 124.103C235.305 133.125 230.23 145.358 230.215 158.117V599.993C230.23 612.752 235.305 624.984 244.327 634.006C253.349 643.028 265.581 648.103 278.34 648.118H654.659C667.418 648.103 679.65 643.028 688.672 634.006C697.694 624.984 702.769 612.752 702.784 599.993V158.117C702.769 145.358 697.694 133.125 688.672 124.103C679.65 115.081 667.418 110.006 654.659 109.992Z" fill="#B9B9BA"/>
<path d="M2091.64 111.992H1715.32C1702.56 112.006 1690.33 117.081 1681.31 126.103C1672.29 135.125 1667.21 147.358 1667.2 160.117V601.993C1667.21 614.752 1672.29 626.984 1681.31 636.006C1690.33 645.028 1702.56 650.103 1715.32 650.118H2091.64C2104.4 650.103 2116.63 645.028 2125.66 636.006C2134.68 626.984 2139.75 614.752 2139.77 601.993V160.117C2139.75 147.358 2134.68 135.125 2125.66 126.103C2116.63 117.081 2104.4 112.006 2091.64 111.992Z" fill="#B9B9BA"/>
<path d="M654.659 123.846H278.34C269.254 123.856 260.543 127.47 254.118 133.895C247.693 140.32 244.08 149.031 244.069 158.117V599.993C244.08 609.079 247.693 617.79 254.118 624.215C260.543 630.639 269.254 634.253 278.34 634.264H654.659C663.745 634.253 672.456 630.639 678.881 624.214C685.306 617.79 688.92 609.079 688.93 599.993V158.117C688.92 149.031 685.306 140.32 678.881 133.895C672.456 127.47 663.745 123.856 654.659 123.846Z" fill="#D5D5CD"/>
<path d="M2091.64 125.846H1715.32C1706.24 125.856 1697.53 129.47 1691.1 135.895C1684.68 142.32 1681.06 151.031 1681.05 160.117V601.993C1681.06 611.079 1684.68 619.79 1691.1 626.215C1697.53 632.639 1706.24 636.253 1715.32 636.264H2091.64C2100.73 636.253 2109.44 632.639 2115.86 626.214C2122.29 619.79 2125.9 611.079 2125.91 601.993V160.117C2125.9 151.031 2122.29 142.32 2115.86 135.895C2109.44 129.47 2100.73 125.856 2091.64 125.846Z" fill="#D5D5CD"/>
<path d="M598.023 366.656H407.721C406.668 366.657 405.625 366.45 404.651 366.048C403.678 365.646 402.794 365.056 402.048 364.311C401.303 363.567 400.712 362.683 400.309 361.71C399.906 360.737 399.698 359.695 399.698 358.641C399.698 357.588 399.906 356.545 400.309 355.572C400.712 354.6 401.303 353.716 402.048 352.971C402.794 352.227 403.678 351.637 404.651 351.235C405.625 350.833 406.668 350.626 407.721 350.627H598.023C600.147 350.63 602.183 351.475 603.684 352.978C605.185 354.48 606.028 356.517 606.028 358.641C606.028 360.765 605.185 362.802 603.684 364.305C602.183 365.808 600.147 366.653 598.023 366.656Z" fill="#B7B9BF"/>
<path d="M2035.01 368.656H1844.7C1843.65 368.657 1842.61 368.45 1841.63 368.048C1840.66 367.646 1839.78 367.056 1839.03 366.311C1838.29 365.567 1837.69 364.683 1837.29 363.71C1836.89 362.737 1836.68 361.695 1836.68 360.641C1836.68 359.588 1836.89 358.545 1837.29 357.572C1837.69 356.6 1838.29 355.716 1839.03 354.971C1839.78 354.227 1840.66 353.637 1841.63 353.235C1842.61 352.833 1843.65 352.626 1844.7 352.627H2035.01C2037.13 352.63 2039.17 353.475 2040.67 354.978C2042.17 356.48 2043.01 358.517 2043.01 360.641C2043.01 362.765 2042.17 364.802 2040.67 366.305C2039.17 367.808 2037.13 368.653 2035.01 368.656Z" fill="#B7B9BF"/>
<path d="M631.081 393.703H407.721C406.668 393.704 405.625 393.498 404.651 393.096C403.678 392.693 402.794 392.103 402.048 391.359C401.303 390.615 400.712 389.731 400.309 388.758C399.906 387.785 399.698 386.742 399.698 385.689C399.698 384.636 399.906 383.593 400.309 382.62C400.712 381.647 401.303 380.763 402.048 380.019C402.794 379.275 403.678 378.685 404.651 378.282C405.625 377.88 406.668 377.674 407.721 377.675H631.081C633.206 377.675 635.245 378.519 636.748 380.022C638.251 381.525 639.095 383.564 639.095 385.689C639.095 387.815 638.251 389.853 636.748 391.356C635.245 392.859 633.206 393.703 631.081 393.703Z" fill="#B7B9BF"/>
<path d="M2068.06 395.703H1844.7C1843.65 395.704 1842.61 395.498 1841.63 395.096C1840.66 394.693 1839.78 394.103 1839.03 393.359C1838.29 392.615 1837.69 391.731 1837.29 390.758C1836.89 389.785 1836.68 388.742 1836.68 387.689C1836.68 386.636 1836.89 385.593 1837.29 384.62C1837.69 383.647 1838.29 382.763 1839.03 382.019C1839.78 381.275 1840.66 380.685 1841.63 380.282C1842.61 379.88 1843.65 379.674 1844.7 379.675H2068.06C2070.19 379.675 2072.23 380.519 2073.73 382.022C2075.23 383.525 2076.08 385.564 2076.08 387.689C2076.08 389.815 2075.23 391.853 2073.73 393.356C2072.23 394.859 2070.19 395.703 2068.06 395.703Z" fill="#B7B9BF"/>
<path d="M598.023 487.869H407.721C406.668 487.87 405.625 487.664 404.651 487.262C403.678 486.859 402.794 486.269 402.048 485.525C401.303 484.781 400.712 483.897 400.309 482.924C399.906 481.951 399.698 480.908 399.698 479.855C399.698 478.802 399.906 477.759 400.309 476.786C400.712 475.813 401.303 474.929 402.048 474.185C402.794 473.441 403.678 472.851 404.651 472.448C405.625 472.046 406.668 471.84 407.721 471.841H598.023C600.148 471.841 602.187 472.685 603.69 474.188C605.193 475.691 606.037 477.729 606.037 479.855C606.037 481.98 605.193 484.019 603.69 485.522C602.187 487.025 600.148 487.869 598.023 487.869Z" fill="#B7B9BF"/>
<path d="M2035.01 489.869H1844.7C1843.65 489.87 1842.61 489.664 1841.63 489.262C1840.66 488.859 1839.78 488.269 1839.03 487.525C1838.29 486.781 1837.69 485.897 1837.29 484.924C1836.89 483.951 1836.68 482.908 1836.68 481.855C1836.68 480.802 1836.89 479.759 1837.29 478.786C1837.69 477.813 1838.29 476.929 1839.03 476.185C1839.78 475.441 1840.66 474.851 1841.63 474.448C1842.61 474.046 1843.65 473.84 1844.7 473.841H2035.01C2037.13 473.841 2039.17 474.685 2040.67 476.188C2042.18 477.691 2043.02 479.729 2043.02 481.855C2043.02 483.98 2042.18 486.019 2040.67 487.522C2039.17 489.025 2037.13 489.869 2035.01 489.869Z" fill="#B7B9BF"/>
<path d="M631.081 514.917H407.721C406.668 514.918 405.625 514.711 404.651 514.309C403.678 513.907 402.794 513.317 402.048 512.573C401.303 511.828 400.712 510.944 400.309 509.972C399.906 508.999 399.698 507.956 399.698 506.903C399.698 505.849 399.906 504.807 400.309 503.834C400.712 502.861 401.303 501.977 402.048 501.233C402.794 500.488 403.678 499.898 404.651 499.496C405.625 499.094 406.668 498.887 407.721 498.888H631.081C632.134 498.887 633.177 499.094 634.151 499.496C635.124 499.898 636.008 500.488 636.754 501.233C637.499 501.977 638.09 502.861 638.493 503.834C638.896 504.807 639.104 505.849 639.104 506.903C639.104 507.956 638.896 508.999 638.493 509.972C638.09 510.944 637.499 511.828 636.754 512.573C636.008 513.317 635.124 513.907 634.151 514.309C633.177 514.711 632.134 514.918 631.081 514.917Z" fill="#B7B9BF"/>
<path d="M2068.06 516.917H1844.7C1843.65 516.918 1842.61 516.711 1841.63 516.309C1840.66 515.907 1839.78 515.317 1839.03 514.573C1838.29 513.828 1837.69 512.944 1837.29 511.972C1836.89 510.999 1836.68 509.956 1836.68 508.903C1836.68 507.849 1836.89 506.807 1837.29 505.834C1837.69 504.861 1838.29 503.977 1839.03 503.233C1839.78 502.488 1840.66 501.898 1841.63 501.496C1842.61 501.094 1843.65 500.887 1844.7 500.888H2068.06C2069.12 500.887 2070.16 501.094 2071.13 501.496C2072.11 501.898 2072.99 502.488 2073.74 503.233C2074.48 503.977 2075.07 504.861 2075.48 505.834C2075.88 506.807 2076.09 507.849 2076.09 508.903C2076.09 509.956 2075.88 510.999 2075.48 511.972C2075.07 512.944 2074.48 513.828 2073.74 514.573C2072.99 515.317 2072.11 515.907 2071.13 516.309C2070.16 516.711 2069.12 516.918 2068.06 516.917Z" fill="#B7B9BF"/>
<path d="M365.092 405.982H297.747C296.728 405.981 295.751 405.575 295.031 404.855C294.31 404.135 293.905 403.158 293.904 402.139V342.192C293.905 341.173 294.31 340.196 295.031 339.476C295.751 338.755 296.728 338.35 297.747 338.349H365.092C366.111 338.35 367.088 338.755 367.809 339.476C368.529 340.196 368.934 341.173 368.935 342.192V402.139C368.934 403.158 368.529 404.135 367.809 404.855C367.088 405.575 366.111 405.981 365.092 405.982Z" fill="#B7B9BF"/>
<path d="M1802.08 407.982H1734.73C1733.71 407.981 1732.73 407.575 1732.01 406.855C1731.29 406.135 1730.89 405.158 1730.89 404.139V344.192C1730.89 343.173 1731.29 342.196 1732.01 341.476C1732.73 340.755 1733.71 340.35 1734.73 340.349H1802.08C1803.09 340.35 1804.07 340.755 1804.79 341.476C1805.51 342.196 1805.92 343.173 1805.92 344.192V404.139C1805.92 405.158 1805.51 406.135 1804.79 406.855C1804.07 407.575 1803.09 407.981 1802.08 407.982Z" fill="#B7B9BF"/>
<path d="M365.092 527.195H297.747C296.728 527.194 295.751 526.789 295.031 526.068C294.31 525.348 293.905 524.371 293.904 523.352V463.405C293.905 462.386 294.31 461.409 295.031 460.689C295.751 459.969 296.728 459.563 297.747 459.562H365.092C366.111 459.563 367.088 459.969 367.809 460.689C368.529 461.409 368.934 462.386 368.935 463.405V523.352C368.934 524.371 368.529 525.348 367.809 526.068C367.088 526.789 366.111 527.194 365.092 527.195Z" fill="#B7B9BF"/>
<path d="M1802.08 529.195H1734.73C1733.71 529.194 1732.73 528.789 1732.01 528.068C1731.29 527.348 1730.89 526.371 1730.89 525.352V465.405C1730.89 464.386 1731.29 463.409 1732.01 462.689C1732.73 461.969 1733.71 461.563 1734.73 461.562H1802.08C1803.09 461.563 1804.07 461.969 1804.79 462.689C1805.51 463.409 1805.92 464.386 1805.92 465.405V525.352C1805.92 526.371 1805.51 527.348 1804.79 528.068C1804.07 528.789 1803.09 529.194 1802.08 529.195Z" fill="#B7B9BF"/>
<path d="M598.234 231.721H457.932C455.807 231.721 453.768 230.877 452.266 229.374C450.763 227.871 449.918 225.832 449.918 223.707C449.918 221.581 450.763 219.543 452.266 218.04C453.768 216.537 455.807 215.693 457.932 215.693H598.234C600.359 215.693 602.398 216.537 603.901 218.04C605.404 219.543 606.248 221.581 606.248 223.707C606.248 225.832 605.404 227.871 603.901 229.374C602.398 230.877 600.359 231.721 598.234 231.721Z" fill="#979BA7"/>
<path d="M2035.22 233.721H1894.91C1892.79 233.721 1890.75 232.877 1889.25 231.374C1887.75 229.871 1886.9 227.832 1886.9 225.707C1886.9 223.581 1887.75 221.543 1889.25 220.04C1890.75 218.537 1892.79 217.693 1894.91 217.693H2035.22C2037.34 217.693 2039.38 218.537 2040.88 220.04C2042.39 221.543 2043.23 223.581 2043.23 225.707C2043.23 227.832 2042.39 229.871 2040.88 231.374C2039.38 232.877 2037.34 233.721 2035.22 233.721Z" fill="#979BA7"/>
<path d="M631.292 258.769H457.932C456.88 258.769 455.838 258.561 454.865 258.159C453.893 257.756 453.01 257.166 452.266 256.421C451.521 255.677 450.931 254.794 450.528 253.821C450.126 252.849 449.918 251.807 449.918 250.755C449.918 249.702 450.126 248.66 450.528 247.688C450.931 246.715 451.521 245.832 452.266 245.088C453.01 244.344 453.893 243.753 454.865 243.35C455.838 242.948 456.88 242.74 457.932 242.74H631.292C633.418 242.74 635.456 243.585 636.959 245.088C638.462 246.591 639.306 248.629 639.306 250.755C639.306 252.88 638.462 254.918 636.959 256.421C635.456 257.924 633.418 258.769 631.292 258.769Z" fill="#979BA7"/>
<path d="M2068.27 260.769H1894.91C1893.86 260.769 1892.82 260.561 1891.85 260.159C1890.88 259.756 1889.99 259.166 1889.25 258.421C1888.5 257.677 1887.91 256.794 1887.51 255.821C1887.11 254.849 1886.9 253.807 1886.9 252.755C1886.9 251.702 1887.11 250.66 1887.51 249.688C1887.91 248.715 1888.5 247.832 1889.25 247.088C1889.99 246.344 1890.88 245.753 1891.85 245.35C1892.82 244.948 1893.86 244.74 1894.91 244.74H2068.27C2070.4 244.74 2072.44 245.585 2073.94 247.088C2075.44 248.591 2076.29 250.629 2076.29 252.755C2076.29 254.88 2075.44 256.918 2073.94 258.421C2072.44 259.924 2070.4 260.769 2068.27 260.769Z" fill="#979BA7"/>
<path d="M426.881 291.547H297.535C296.517 291.546 295.54 291.141 294.819 290.42C294.099 289.7 293.694 288.723 293.693 287.704V186.757C293.694 185.738 294.099 184.761 294.819 184.041C295.54 183.321 296.517 182.915 297.535 182.914H426.881C427.9 182.915 428.877 183.321 429.597 184.041C430.318 184.761 430.723 185.738 430.724 186.757V287.704C430.723 288.723 430.318 289.7 429.597 290.42C428.877 291.141 427.9 291.546 426.881 291.547Z" fill="#F7D482"/>
<path d="M1863.86 293.547H1734.52C1733.5 293.546 1732.52 293.141 1731.8 292.42C1731.08 291.7 1730.68 290.723 1730.68 289.704V188.757C1730.68 187.738 1731.08 186.761 1731.8 186.041C1732.52 185.321 1733.5 184.915 1734.52 184.914H1863.86C1864.88 184.915 1865.86 185.321 1866.58 186.041C1867.3 186.761 1867.71 187.738 1867.71 188.757V289.704C1867.71 290.723 1867.3 291.7 1866.58 292.42C1865.86 293.141 1864.88 293.546 1863.86 293.547Z" fill="#F7D482"/>
<path d="M827.5 369.5L927.5 427.235V311.765L827.5 369.5ZM1388 369.5L1288 311.765V427.235L1388 369.5ZM917.5 379.5H1298V359.5H917.5V379.5Z" fill="#D5D5CD"/>
<path d="M795 604L857.543 701.066L910.333 598.369L795 604ZM1258 842L1195.46 744.934L1142.67 847.631L1258 842ZM840.035 638.394L873.107 655.394L882.25 637.606L849.179 620.606L840.035 638.394ZM906.178 672.394L939.25 689.394L948.393 671.606L915.322 654.606L906.178 672.394ZM972.321 706.394L1005.39 723.394L1014.54 705.606L981.465 688.606L972.321 706.394ZM1038.46 740.394L1071.54 757.394L1080.68 739.606L1047.61 722.606L1038.46 740.394ZM1104.61 774.394L1137.68 791.394L1146.82 773.606L1113.75 756.606L1104.61 774.394ZM1170.75 808.394L1203.82 825.394L1212.96 807.606L1179.89 790.606L1170.75 808.394Z" fill="#D5D5CD"/>
<g clip-path="url(#clip1_50_185)">
<path d="M1884.86 1191.17L1839.45 948.145C1838.67 944.139 1836.55 940.515 1833.45 937.869C1830.34 935.222 1826.42 933.709 1822.34 933.578C1821.98 933.57 1821.61 933.57 1821.24 933.578L1790.3 934.687L1786.97 934.81L1771.53 935.364L1768.2 935.479L1758.27 935.837L1558.01 943.023C1557.71 943.039 1557.4 943.039 1557.1 943.031L1512.22 942.093L1495.61 941.75L1495.08 941.742L1482.83 941.481L1376.02 939.263L1347.7 938.668L1333.74 938.382L1330.39 938.309L1314.47 937.982L1311.13 937.909L1294.84 937.575L1291.51 937.501L1273.61 937.126L1270.8 937.069L1254.84 936.735L1252.32 936.686H1251.95C1247.71 936.703 1243.62 938.217 1240.39 940.96C1237.16 943.703 1235.01 947.499 1234.31 951.676L1193.24 1203.86C1192.82 1206.41 1192.96 1209.03 1193.66 1211.52C1194.35 1214.01 1195.58 1216.33 1197.26 1218.3C1198.93 1220.27 1201.02 1221.85 1203.37 1222.94C1205.72 1224.03 1208.28 1224.59 1210.87 1224.59H1446.75C1450.22 1224.6 1453.6 1225.71 1456.39 1227.77L1460.87 1231.08C1463.95 1233.35 1467.67 1234.58 1471.5 1234.59H1610.51C1612.86 1234.59 1615.18 1234.13 1617.35 1233.24C1619.52 1232.34 1621.49 1231.02 1623.15 1229.35C1625.98 1226.52 1629.76 1224.84 1633.76 1224.63L1868.23 1212.28C1870.77 1212.15 1873.26 1211.47 1875.52 1210.3C1877.78 1209.13 1879.76 1207.49 1881.34 1205.49C1882.91 1203.49 1884.04 1201.18 1884.65 1198.71C1885.26 1196.24 1885.33 1193.67 1884.86 1191.17Z" fill="#CCCCCC"/>
<path d="M1847.7 1184.56L1822.38 933.904C1822.38 933.798 1822.36 933.684 1822.34 933.578C1821.87 929.573 1819.89 925.898 1816.81 923.294L1762.35 877.955C1759.99 875.969 1757.04 874.794 1753.96 874.603C1729.04 873.004 1602.38 867.083 1555.63 907.643C1554.21 908.876 1552.54 909.784 1550.73 910.303C1548.92 910.821 1547.02 910.938 1545.16 910.644C1543.3 910.342 1541.53 909.642 1539.96 908.592C1538.4 907.542 1537.08 906.167 1536.09 904.56C1532.11 898.367 1526.91 893.059 1520.79 888.966C1518.04 887.06 1515.18 885.324 1512.22 883.77C1509.6 882.392 1506.75 881.054 1503.65 879.766C1500.98 878.657 1498.13 877.588 1495.08 876.569C1479.26 871.284 1458.11 867.336 1429.84 866.015C1418.11 865.46 1405.36 865.387 1391.96 865.787C1379.72 866.145 1366.71 866.888 1353.3 867.997L1353.1 868.005L1262.38 923.359C1260.35 924.626 1258.63 926.339 1257.35 928.368C1256.08 930.397 1255.29 932.689 1255.03 935.071L1254.84 936.735L1226.03 1193.98C1225.78 1196.17 1225.99 1198.38 1226.62 1200.48C1227.26 1202.59 1228.33 1204.54 1229.75 1206.22C1231.13 1207.86 1232.85 1209.18 1234.8 1210.08C1236.74 1210.99 1238.86 1211.46 1241 1211.47H1464.54C1467.51 1211.49 1470.39 1212.51 1472.71 1214.37L1482.47 1222.18C1485.01 1224.22 1488.16 1225.37 1491.42 1225.43L1589.71 1227.04H1589.94C1592.42 1227.03 1594.86 1226.4 1597.03 1225.19L1615.99 1214.67C1617.72 1213.71 1619.65 1213.15 1621.62 1213.04L1833.47 1201.86C1835.54 1201.75 1837.56 1201.2 1839.4 1200.26C1841.24 1199.32 1842.86 1198 1844.16 1196.39C1845.5 1194.76 1846.51 1192.86 1847.12 1190.83C1847.73 1188.8 1847.92 1186.67 1847.7 1184.56Z" fill="#B9B9BA"/>
<path d="M1773.75 1139.36L1770.79 1100.34L1758.28 935.842L1756.42 911.507C1755.95 905.115 1753.11 899.127 1748.46 894.711C1743.82 890.295 1737.69 887.766 1731.28 887.619C1685.44 886.443 1602.43 888.513 1561.7 915.788C1557.17 918.866 1551.68 920.193 1546.24 919.522C1540.8 918.852 1535.8 916.229 1532.15 912.142C1526.52 905.958 1519.75 900.908 1512.22 897.263C1506.7 894.5 1500.97 892.195 1495.08 890.371C1477.84 884.867 1456.08 881.522 1429.81 880.338L1367.46 879.974H1367.35C1363.04 879.978 1358.88 881.625 1355.73 884.581C1352.58 887.537 1350.68 891.579 1350.41 895.887L1347.7 938.665L1335.87 1126.27C1335.65 1129.76 1336.14 1133.26 1337.32 1136.56C1338.49 1139.86 1340.33 1142.89 1342.71 1145.46C1345.09 1148.03 1347.97 1150.09 1351.17 1151.51C1354.37 1152.93 1357.83 1153.69 1361.33 1153.74C1465.99 1155.29 1511.71 1177.37 1531.65 1195.6C1535.88 1199.49 1541.3 1201.85 1547.03 1202.32C1552.77 1202.78 1558.49 1201.32 1563.3 1198.17C1599.49 1174.48 1659.65 1167.89 1707.54 1166.87C1722.2 1166.56 1735.71 1166.76 1747.04 1167.16C1750.68 1167.29 1754.3 1166.65 1757.68 1165.29C1761.05 1163.92 1764.1 1161.86 1766.62 1159.23C1769.14 1156.61 1771.08 1153.48 1772.31 1150.06C1773.54 1146.63 1774.03 1142.98 1773.75 1139.36Z" fill="#D5D5CD"/>
<path d="M1254.18 1193.77C1254.14 1193.77 1254.1 1193.77 1254.06 1193.76C1253.84 1193.75 1253.63 1193.69 1253.43 1193.59C1253.24 1193.5 1253.06 1193.36 1252.92 1193.2C1252.78 1193.03 1252.67 1192.84 1252.6 1192.63C1252.53 1192.42 1252.5 1192.2 1252.52 1191.99L1270.52 937.87C1270.54 937.651 1270.59 937.437 1270.69 937.24C1270.79 937.043 1270.92 936.868 1271.09 936.724C1271.25 936.58 1271.45 936.471 1271.65 936.402C1271.86 936.334 1272.08 936.308 1272.3 936.326C1272.52 936.342 1272.73 936.4 1272.93 936.497C1273.13 936.595 1273.3 936.73 1273.44 936.896C1273.59 937.061 1273.7 937.252 1273.77 937.46C1273.83 937.667 1273.86 937.886 1273.85 938.104L1255.84 1192.22C1255.81 1192.64 1255.62 1193.03 1255.31 1193.32C1255.01 1193.61 1254.6 1193.77 1254.18 1193.77Z" fill="#D5D5CD"/>
<path d="M1275.85 1183.77C1275.81 1183.77 1275.77 1183.77 1275.73 1183.77C1275.51 1183.75 1275.3 1183.7 1275.1 1183.6C1274.91 1183.5 1274.73 1183.36 1274.59 1183.2C1274.45 1183.03 1274.34 1182.84 1274.27 1182.64C1274.2 1182.43 1274.17 1182.21 1274.19 1181.99L1292.19 927.874C1292.21 927.655 1292.26 927.441 1292.36 927.244C1292.46 927.047 1292.59 926.872 1292.76 926.728C1292.92 926.584 1293.12 926.475 1293.32 926.406C1293.53 926.338 1293.75 926.312 1293.97 926.33C1294.19 926.346 1294.4 926.404 1294.6 926.502C1294.8 926.599 1294.97 926.735 1295.11 926.9C1295.26 927.065 1295.37 927.257 1295.44 927.464C1295.51 927.671 1295.53 927.89 1295.52 928.109L1277.51 1182.22C1277.48 1182.65 1277.29 1183.04 1276.98 1183.33C1276.68 1183.61 1276.27 1183.77 1275.85 1183.77Z" fill="#D5D5CD"/>
<path d="M1295.85 1178.78C1295.81 1178.78 1295.77 1178.77 1295.73 1178.77C1295.52 1178.76 1295.3 1178.7 1295.11 1178.6C1294.91 1178.5 1294.74 1178.37 1294.59 1178.2C1294.45 1178.04 1294.34 1177.84 1294.27 1177.64C1294.2 1177.43 1294.17 1177.21 1294.19 1176.99L1312.2 922.876C1312.21 922.657 1312.27 922.443 1312.36 922.246C1312.46 922.049 1312.59 921.874 1312.76 921.73C1312.93 921.586 1313.12 921.477 1313.33 921.409C1313.54 921.34 1313.76 921.314 1313.98 921.332C1314.19 921.348 1314.41 921.406 1314.6 921.504C1314.8 921.601 1314.97 921.737 1315.12 921.902C1315.26 922.067 1315.37 922.259 1315.44 922.466C1315.51 922.673 1315.54 922.893 1315.52 923.111L1297.51 1177.23C1297.48 1177.65 1297.3 1178.04 1296.99 1178.33C1296.68 1178.62 1296.27 1178.78 1295.85 1178.78Z" fill="#D5D5CD"/>
<path d="M1315.86 1168.78C1315.82 1168.78 1315.78 1168.78 1315.74 1168.78C1315.52 1168.76 1315.31 1168.7 1315.11 1168.6C1314.91 1168.51 1314.74 1168.37 1314.6 1168.21C1314.45 1168.04 1314.34 1167.85 1314.27 1167.64C1314.2 1167.43 1314.18 1167.22 1314.19 1167L1332.2 912.881C1332.21 912.662 1332.27 912.448 1332.37 912.251C1332.46 912.054 1332.6 911.878 1332.76 911.734C1332.93 911.591 1333.12 911.481 1333.33 911.413C1333.54 911.345 1333.76 911.319 1333.98 911.337C1334.2 911.352 1334.41 911.41 1334.61 911.508C1334.8 911.606 1334.98 911.741 1335.12 911.906C1335.26 912.071 1335.37 912.263 1335.44 912.47C1335.51 912.678 1335.54 912.897 1335.52 913.115L1317.52 1167.23C1317.49 1167.65 1317.3 1168.05 1316.99 1168.33C1316.68 1168.62 1316.28 1168.78 1315.86 1168.78Z" fill="#D5D5CD"/>
<path d="M1827.6 1195.44C1827.64 1195.44 1827.68 1195.43 1827.72 1195.43C1827.94 1195.42 1828.15 1195.36 1828.35 1195.26C1828.54 1195.16 1828.72 1195.03 1828.86 1194.86C1829 1194.7 1829.11 1194.5 1829.18 1194.3C1829.25 1194.09 1829.28 1193.87 1829.26 1193.65L1811.26 939.536C1811.24 939.317 1811.19 939.103 1811.09 938.906C1810.99 938.709 1810.86 938.533 1810.69 938.39C1810.53 938.246 1810.33 938.136 1810.13 938.068C1809.92 938 1809.7 937.974 1809.48 937.992C1809.26 938.007 1809.05 938.066 1808.85 938.163C1808.66 938.261 1808.48 938.396 1808.34 938.561C1808.19 938.727 1808.08 938.918 1808.01 939.126C1807.95 939.333 1807.92 939.552 1807.93 939.77L1825.94 1193.89C1825.97 1194.31 1826.16 1194.7 1826.47 1194.99C1826.77 1195.28 1827.18 1195.44 1827.6 1195.44Z" fill="#D5D5CD"/>
<path d="M1805.93 1180.44C1805.97 1180.44 1806.01 1180.44 1806.05 1180.44C1806.27 1180.42 1806.48 1180.36 1806.68 1180.27C1806.87 1180.17 1807.05 1180.03 1807.19 1179.87C1807.33 1179.7 1807.44 1179.51 1807.51 1179.3C1807.58 1179.1 1807.61 1178.88 1807.59 1178.66L1789.59 924.543C1789.57 924.324 1789.52 924.109 1789.42 923.912C1789.32 923.715 1789.19 923.54 1789.02 923.396C1788.86 923.252 1788.66 923.143 1788.46 923.075C1788.25 923.006 1788.03 922.981 1787.81 922.999C1787.59 923.014 1787.38 923.072 1787.18 923.17C1786.98 923.267 1786.81 923.403 1786.67 923.568C1786.52 923.733 1786.41 923.925 1786.34 924.132C1786.28 924.34 1786.25 924.559 1786.26 924.777L1804.27 1178.89C1804.3 1179.31 1804.49 1179.71 1804.8 1179.99C1805.1 1180.28 1805.51 1180.44 1805.93 1180.44Z" fill="#D5D5CD"/>
<path d="M1785.93 1163.78C1785.97 1163.78 1786.01 1163.78 1786.05 1163.78C1786.26 1163.76 1786.48 1163.7 1786.67 1163.61C1786.87 1163.51 1787.04 1163.37 1787.19 1163.21C1787.33 1163.04 1787.44 1162.85 1787.51 1162.64C1787.58 1162.44 1787.61 1162.22 1787.59 1162L1769.58 907.883C1769.57 907.664 1769.51 907.45 1769.42 907.253C1769.32 907.056 1769.19 906.88 1769.02 906.736C1768.85 906.593 1768.66 906.483 1768.45 906.415C1768.24 906.347 1768.02 906.321 1767.8 906.339C1767.59 906.354 1767.37 906.412 1767.18 906.51C1766.98 906.608 1766.81 906.743 1766.66 906.908C1766.52 907.073 1766.41 907.265 1766.34 907.473C1766.27 907.68 1766.24 907.899 1766.26 908.117L1784.27 1162.23C1784.3 1162.65 1784.48 1163.05 1784.79 1163.33C1785.1 1163.62 1785.51 1163.78 1785.93 1163.78Z" fill="#D5D5CD"/>
<path d="M1376.85 937.379C1414.42 925.398 1456.34 928.57 1491.94 945.448C1502.09 950.239 1511.68 956.144 1520.53 963.053C1523.04 965.017 1526.6 961.504 1524.07 959.519C1491.38 934.175 1450.3 922.135 1409.08 925.819C1397.68 926.839 1386.43 929.099 1375.52 932.559C1372.46 933.533 1373.77 938.36 1376.85 937.379Z" fill="#3F3D56"/>
<path d="M1583.6 964.992C1618.54 946.64 1660.37 942.639 1698.35 953.056C1709.18 956.018 1719.65 960.177 1729.55 965.454C1732.39 966.968 1734.92 962.655 1732.08 961.138C1695.88 941.833 1652.42 937.389 1612.89 948.151C1601.86 951.158 1591.2 955.358 1581.08 960.676C1578.23 962.173 1580.75 966.488 1583.6 964.992Z" fill="#3F3D56"/>
<path d="M1583.97 1030.58C1618.9 1012.23 1660.73 1008.23 1698.72 1018.64C1709.54 1021.61 1720.01 1025.77 1729.92 1031.04C1732.75 1032.56 1735.28 1028.24 1732.44 1026.73C1696.24 1007.42 1652.78 1002.98 1613.25 1013.74C1602.23 1016.75 1591.56 1020.95 1581.44 1026.27C1578.59 1027.76 1581.12 1032.08 1583.97 1030.58Z" fill="#3F3D56"/>
<path d="M1583.97 996.471C1618.9 978.12 1660.73 974.119 1698.72 984.535C1709.54 987.498 1720.01 991.657 1729.92 996.934C1732.75 998.447 1735.28 994.135 1732.44 992.618C1696.24 973.313 1652.78 968.869 1613.25 979.631C1602.23 982.638 1591.56 986.838 1581.44 992.156C1578.59 993.653 1581.12 997.968 1583.97 996.471Z" fill="#3F3D56"/>
<path d="M1584.33 1062.06C1619.26 1043.71 1661.09 1039.71 1699.08 1050.12C1709.91 1053.09 1720.37 1057.25 1730.28 1062.52C1733.12 1064.04 1735.65 1059.72 1732.8 1058.21C1696.6 1038.9 1653.15 1034.46 1613.62 1045.22C1602.59 1048.23 1591.92 1052.43 1581.8 1057.75C1578.95 1059.24 1581.48 1063.56 1584.33 1062.06Z" fill="#3F3D56"/>
<path d="M1605.61 1030.11L1604.94 1030.6C1605.17 1030.43 1605.4 1030.27 1605.65 1030.12L1605.61 1030.11Z" fill="#D5D5CD"/>
<path d="M1376.85 970.698C1414.42 958.717 1456.34 961.889 1491.94 978.767C1502.09 983.558 1511.68 989.463 1520.53 996.372C1523.04 998.336 1526.6 994.823 1524.07 992.838C1491.38 967.494 1450.3 955.454 1409.08 959.138C1397.68 960.158 1386.43 962.418 1375.52 965.878C1372.46 966.852 1373.77 971.679 1376.85 970.698Z" fill="#3F3D56"/>
<path d="M1376.85 1004.02C1414.42 992.036 1456.34 995.208 1491.94 1012.09C1502.09 1016.88 1511.68 1022.78 1520.53 1029.69C1523.04 1031.65 1526.6 1028.14 1524.07 1026.16C1491.38 1000.81 1450.3 988.773 1409.08 992.457C1397.68 993.477 1386.43 995.737 1375.52 999.197C1372.46 1000.17 1373.77 1005 1376.85 1004.02Z" fill="#3F3D56"/>
<path d="M1376.85 1037.34C1414.42 1025.35 1456.34 1028.53 1491.94 1045.41C1502.09 1050.2 1511.68 1056.1 1520.53 1063.01C1523.04 1064.97 1526.6 1061.46 1524.07 1059.48C1491.38 1034.13 1450.3 1022.09 1409.08 1025.78C1397.68 1026.8 1386.43 1029.06 1375.52 1032.52C1372.46 1033.49 1373.77 1038.32 1376.85 1037.34Z" fill="#3F3D56"/>
<path d="M1376.85 1070.65C1414.42 1058.67 1456.34 1061.85 1491.94 1078.72C1502.09 1083.52 1511.68 1089.42 1520.53 1096.33C1523.04 1098.29 1526.6 1094.78 1524.07 1092.8C1491.38 1067.45 1450.3 1055.41 1409.08 1059.1C1397.68 1060.12 1386.43 1062.38 1375.52 1065.84C1372.46 1066.81 1373.77 1071.64 1376.85 1070.65Z" fill="#3F3D56"/>
<path d="M1376.85 1103.97C1414.42 1091.99 1456.34 1095.16 1491.94 1112.04C1502.09 1116.83 1511.68 1122.74 1520.53 1129.65C1523.04 1131.61 1526.6 1128.1 1524.07 1126.11C1491.38 1100.77 1450.3 1088.73 1409.08 1092.41C1397.68 1093.43 1386.43 1095.69 1375.52 1099.15C1372.46 1100.13 1373.77 1104.96 1376.85 1103.97Z" fill="#3F3D56"/>
<path d="M1512.22 883.77V977.155C1512.22 978.746 1509.45 980.075 1505.7 980.434C1505.05 980.499 1504.36 980.532 1503.65 980.532C1501.59 980.571 1499.54 980.237 1497.6 979.545C1497.24 979.405 1496.89 979.239 1496.55 979.047C1495.62 978.501 1495.08 977.857 1495.08 977.155V876.569C1498.13 877.588 1500.98 878.657 1503.65 879.766C1506.75 881.054 1509.6 882.392 1512.22 883.77Z" fill="#F7D482"/>
<path d="M1548.14 915.79H1545.69V1217.87H1548.14V915.79Z" fill="#B9B9BA"/>
<ellipse cx="1680.22" cy="1107.99" rx="22.3605" ry="16.4665" fill="#CC8989"/>
</g>
<path d="M1063.5 684C1087.52 684 1107 664.524 1107 640.5C1107 616.476 1087.52 597 1063.5 597C1039.48 597 1020 616.476 1020 640.5C1020 664.524 1039.48 684 1063.5 684Z" fill="#F7D482"/>
<path d="M1101.5 327C1125.52 327 1145 307.524 1145 283.5C1145 259.476 1125.52 240 1101.5 240C1077.48 240 1058 259.476 1058 283.5C1058 307.524 1077.48 327 1101.5 327Z" fill="#F7D482"/>
<path d="M1057.61 663C1056.86 663 1056.12 662.826 1055.45 662.492C1054.79 662.158 1054.21 661.673 1053.76 661.076L1041.96 645.349C1041.59 644.844 1041.31 644.269 1041.15 643.657C1040.99 643.045 1040.96 642.408 1041.05 641.782C1041.14 641.156 1041.35 640.554 1041.67 640.01C1041.99 639.466 1042.42 638.991 1042.92 638.612C1043.43 638.233 1044 637.957 1044.62 637.8C1045.23 637.644 1045.87 637.609 1046.49 637.699C1047.12 637.789 1047.72 638.001 1048.26 638.323C1048.81 638.646 1049.28 639.072 1049.66 639.578L1057.37 649.866L1077.19 620.138C1077.9 619.078 1079 618.342 1080.25 618.093C1081.5 617.844 1082.8 618.101 1083.86 618.808C1084.92 619.515 1085.66 620.614 1085.91 621.864C1086.16 623.114 1085.9 624.412 1085.19 625.473L1061.61 660.858C1061.18 661.498 1060.61 662.027 1059.93 662.399C1059.26 662.771 1058.51 662.977 1057.74 662.999C1057.69 662.999 1057.65 663 1057.61 663Z" fill="#979BA7"/>
<path d="M1095.61 306C1094.86 306 1094.12 305.826 1093.45 305.492C1092.79 305.158 1092.21 304.673 1091.76 304.076L1079.96 288.349C1079.59 287.844 1079.31 287.269 1079.15 286.657C1078.99 286.045 1078.96 285.408 1079.05 284.782C1079.14 284.156 1079.35 283.554 1079.67 283.01C1079.99 282.466 1080.42 281.991 1080.92 281.612C1081.43 281.233 1082 280.957 1082.62 280.8C1083.23 280.644 1083.87 280.609 1084.49 280.699C1085.12 280.789 1085.72 281.001 1086.26 281.323C1086.81 281.646 1087.28 282.072 1087.66 282.578L1095.37 292.866L1115.19 263.138C1115.9 262.078 1117 261.342 1118.25 261.093C1119.5 260.844 1120.8 261.101 1121.86 261.808C1122.92 262.515 1123.66 263.614 1123.91 264.864C1124.16 266.114 1123.9 267.412 1123.19 268.473L1099.61 303.858C1099.18 304.498 1098.61 305.027 1097.93 305.399C1097.26 305.771 1096.51 305.977 1095.74 305.999C1095.69 305.999 1095.65 306 1095.61 306Z" fill="#979BA7"/>
</g>
<defs>
<clipPath id="clip0_50_185">
<rect width="2180" height="1254" fill="white"/>
</clipPath>
<clipPath id="clip1_50_185">
<rect width="692" height="474" fill="white" transform="translate(1193 821)"/>
</clipPath>
</defs>
</svg>
