<svg width="12" height="13" viewBox="0 0 12 13" fill="none" xmlns="http://www.w3.org/2000/svg">
<path d="M2.752 12.688C2.752 12.576 2.704 12.512 2.624 12.512C2.544 12.512 2.464 12.544 2.336 12.624L2.272 12.496C1.776 11.696 1.328 10.32 1.136 9.792C1.04 9.52 0.944 8.96 0.816 8.112C0.96 8.192 1.056 8.224 1.104 8.224C1.296 8.224 1.696 7.84 1.968 7.84C2.144 7.984 2.288 8.08 2.336 8.464C2.496 9.712 2.816 10.464 3.024 10.464C3.2 10.464 3.424 10.256 4 9.216C4.256 8.336 4.528 8.272 4.816 7.616C4.816 7.744 4.848 7.808 4.88 7.808C4.928 7.808 4.992 7.744 5.056 7.584C5.104 7.44 5.456 6.864 5.856 6.128C6.624 4.72 8.464 2.496 8.848 2.048C9.296 1.536 10.048 0.927999 10.352 0.752C10.288 1.024 10.32 1.104 10.416 1.104C10.672 0.992 10.992 0.608 11.2 0.495999L11.072 0.783999C11.232 0.672 11.344 0.608 11.44 0.608C11.52 0.608 11.568 0.735999 11.568 0.815999C11.568 0.943999 11.488 1.12 11.296 1.344C11.104 1.568 10.736 2.08 10.064 2.784L9.12 3.776C8.512 4.544 5.968 8.176 5.488 8.992L4.496 10.672C4.064 11.392 3.808 11.856 3.648 12.032C3.488 12.208 3.328 12.384 3.12 12.544L3.072 12.512L2.976 12.464L2.928 12.48L2.752 12.688Z" fill="#F7D482"/>
</svg>
